# xmcd
#
# Track frame offsets: 
#        150
#        12569
#        24351
#        34700
#        46037
#        57095
#        72710
#        84814
#        97195
#        109145
#        120083
#        132308
#        143177
#        155150
#        165911
#        180295
#        190915
#        204735
#        219457
#        233715
#        247666
#        260288
#
# Disc length: 3645 seconds
#
# Revision: 3
# Processed by: cddbd v1.5.2PL0 Copyright (c) Steve Scherf et al.
# Submitted via: ExactAudioCopyFreeDBPlugin 1.0
#
DISCID=200e3b16
DTITLE=T-Bone Walker - T-Bone Walker:  The Original Source [Proper Rec
DTITLE=ords]
DYEAR=2002
DGENRE=Blues
TTITLE0=Baby, You Broke My Heart
TTITLE1=Evil Hearted Woman
TTITLE2=I Walked Away
TTITLE3=No Reason
TTITLE4=Look Me in the Eye
TTITLE5=Too Lazy
TTITLE6=Alimony Blues
TTITLE7=Life is Too Short
TTITLE8=You Don't Understand
TTITLE9=Welcome Blues
TTITLE10=I Get So Weary
TTITLE11=You Just Wanted to Use Me
TTITLE12=Tell Me What's the Reason
TTITLE13=I'm About to Lose My Mind
TTITLE14=Cold Cold Feeling
TTITLE15=News for You Baby
TTITLE16=Get These Blues Off Me
TTITLE17=I Got the Blues Again
TTITLE18=Through with Women
TTITLE19=Street Walkin' Woman
TTITLE20=Blues is a Woman
TTITLE21=I Got the Blues
EXTD=
EXTT0=
EXTT1=
EXTT2=
EXTT3=
EXTT4=
EXTT5=
EXTT6=
EXTT7=
EXTT8=
EXTT9=
EXTT10=
EXTT11=
EXTT12=
EXTT13=
EXTT14=
EXTT15=
EXTT16=
EXTT17=
EXTT18=
EXTT19=
EXTT20=
EXTT21=
PLAYORDER=
